<?xml version="1.0" encoding="UTF-8" standalone="no"?>
<svg width="24px" height="227px" viewBox="0 0 24 227" version="1.1" xmlns="http://www.w3.org/2000/svg" xmlns:xlink="http://www.w3.org/1999/xlink" xmlns:sketch="http://www.bohemiancoding.com/sketch/ns">
    <!-- Generator: Sketch 3.0.4 (8053) - http://www.bohemiancoding.com/sketch -->
    <title>Artboard 1</title>
    <desc>Created with Sketch.</desc>
    <defs></defs>
    <g id="Page-1" stroke="none" stroke-width="1" fill="none" fill-rule="evenodd" sketch:type="MSPage">
        <g id="Artboard-1" sketch:type="MSArtboardGroup">
            <path d="M12.3234175,92.5159612 C12.2396505,92.2730097 12.168,91.8771262 12.2158058,91.631068 C12.2681942,91.3609709 12.4399612,91.3780971 12.4878058,91.6104854 C12.5356117,91.8432233 12.4177476,92.3182524 12.3234175,92.5159612 L12.3234175,92.5159612 Z M10.0381359,96.531767 C9.78978641,96.8051262 9.95324272,97.0201942 10.2532427,96.7267184 C10.400932,96.5821359 10.5801553,96.315767 10.7068738,96.0656311 C10.495767,96.1720388 10.1984854,96.3553398 10.0381359,96.531767 L10.0381359,96.531767 Z M11.9530097,94.9558447 C12.2269126,94.8643883 12.8174757,94.7269903 12.9655146,94.6922718 C12.9495534,94.675301 12.5248155,94.2385243 12.3852039,93.9975534 C12.2738252,94.2781359 11.9609709,94.9389515 11.9530097,94.9558447 L11.9530097,94.9558447 Z M15.1063689,84.0117282 L15.1063689,87.9143689 L19.0089709,87.9143689 L15.1063689,84.0117282 L15.1063689,84.0117282 Z M15.1052039,95.0638835 C14.9384466,95.0394175 14.6979417,95.0389903 14.4133592,95.0623689 C14.6093981,95.1947961 14.8786408,95.3326214 15.1735922,95.3381748 C15.5178252,95.3445825 15.4883883,95.1201553 15.1052039,95.0638835 L15.1052039,95.0638835 Z M19.0239223,89.2730485 L19.0239223,100 L6,100 L6,84 L13.7476505,84 L13.7476505,89.2730485 L19.0239223,89.2730485 L19.0239223,89.2730485 Z M15.1914951,94.4765049 C14.7527379,94.4121165 14.1295146,94.4841553 13.691301,94.5541748 C13.3708738,94.2824078 12.9686214,93.8714563 12.6619417,93.3255922 C12.8730874,92.7811262 13.0087767,92.3502136 13.0655146,92.0431845 C13.3617864,90.4410874 11.4142136,90.3132427 11.6223689,92.0333204 C11.6777864,92.4913398 11.8081553,92.936466 12.0102524,93.3585631 C11.7705631,93.9505631 11.4665631,94.6172816 11.1605437,95.2221748 C10.484,95.4784078 9.99499029,95.7460971 9.70625243,96.0185631 C8.69483495,96.972699 9.95238835,98.2406214 10.9065243,96.8654757 C11.1351845,96.5361165 11.3918447,96.0678447 11.582835,95.6998058 C12.1813592,95.4885049 12.8772039,95.3041553 13.5280388,95.1845437 C13.9528932,95.5094757 14.6316117,95.9318058 15.1735922,95.9318058 C16.2093981,95.9318058 16.3575146,94.647767 15.1914951,94.4765049 L15.1914951,94.4765049 Z" id="pdf-file-3-icon-2" fill="#112337" sketch:type="MSShapeGroup"></path>
            <path d="M12.3234175,132.515961 C12.2396505,132.27301 12.168,131.877126 12.2158058,131.631068 C12.2681942,131.360971 12.4399612,131.378097 12.4878058,131.610485 C12.5356117,131.843223 12.4177476,132.318252 12.3234175,132.515961 L12.3234175,132.515961 Z M10.0381359,136.531767 C9.78978641,136.805126 9.95324272,137.020194 10.2532427,136.726718 C10.400932,136.582136 10.5801553,136.315767 10.7068738,136.065631 C10.495767,136.172039 10.1984854,136.35534 10.0381359,136.531767 L10.0381359,136.531767 Z M11.9530097,134.955845 C12.2269126,134.864388 12.8174757,134.72699 12.9655146,134.692272 C12.9495534,134.675301 12.5248155,134.238524 12.3852039,133.997553 C12.2738252,134.278136 11.9609709,134.938951 11.9530097,134.955845 L11.9530097,134.955845 Z M15.1063689,124.011728 L15.1063689,127.914369 L19.0089709,127.914369 L15.1063689,124.011728 L15.1063689,124.011728 Z M15.1052039,135.063883 C14.9384466,135.039417 14.6979417,135.03899 14.4133592,135.062369 C14.6093981,135.194796 14.8786408,135.332621 15.1735922,135.338175 C15.5178252,135.344583 15.4883883,135.120155 15.1052039,135.063883 L15.1052039,135.063883 Z M19.0239223,129.273049 L19.0239223,140 L6,140 L6,124 L13.7476505,124 L13.7476505,129.273049 L19.0239223,129.273049 L19.0239223,129.273049 Z M15.1914951,134.476505 C14.7527379,134.412117 14.1295146,134.484155 13.691301,134.554175 C13.3708738,134.282408 12.9686214,133.871456 12.6619417,133.325592 C12.8730874,132.781126 13.0087767,132.350214 13.0655146,132.043184 C13.3617864,130.441087 11.4142136,130.313243 11.6223689,132.03332 C11.6777864,132.49134 11.8081553,132.936466 12.0102524,133.358563 C11.7705631,133.950563 11.4665631,134.617282 11.1605437,135.222175 C10.484,135.478408 9.99499029,135.746097 9.70625243,136.018563 C8.69483495,136.972699 9.95238835,138.240621 10.9065243,136.865476 C11.1351845,136.536117 11.3918447,136.067845 11.582835,135.699806 C12.1813592,135.488505 12.8772039,135.304155 13.5280388,135.184544 C13.9528932,135.509476 14.6316117,135.931806 15.1735922,135.931806 C16.2093981,135.931806 16.3575146,134.647767 15.1914951,134.476505 L15.1914951,134.476505 Z" id="pdf-file-3-icon-3" fill="#FFFFFF" sketch:type="MSShapeGroup"></path>
            <path d="M12,40 C5.37256311,40 0,45.3725631 0,52 C0,58.6274369 5.37256311,64 12,64 C18.6274369,64 24,58.6274369 24,52 C24,45.3725631 18.6274369,40 12,40 L12,40 Z M18.0348932,49.9323883 C18.2108738,53.8468932 15.2914369,58.2114563 10.1240971,58.2114563 C8.55238835,58.2114563 7.08937864,57.7506214 5.85780583,56.9610097 C7.3343301,57.1350097 8.80805825,56.7254369 9.97823301,55.8084272 C8.76034951,55.7859417 7.73236893,54.9813592 7.37831068,53.8755534 C7.81438835,53.9589709 8.24341748,53.9345631 8.6351068,53.8280194 C7.29669903,53.559068 6.37264078,52.3532427 6.40281553,51.063767 C6.77796117,51.2723107 7.20728155,51.3974951 7.66351456,51.4119417 C6.42401942,50.583534 6.07304854,48.9468155 6.80225243,47.6960777 C8.17485437,49.3799223 10.2257476,50.488 12.538835,50.6040388 C12.1328738,48.8631068 13.4535146,47.1865437 15.2500194,47.1865437 C16.0505243,47.1865437 16.7739029,47.5245243 17.2815146,48.0654563 C17.915534,47.9406214 18.5111068,47.7090097 19.0489515,47.3900777 C18.841165,48.04 18.3997864,48.5854757 17.8251845,48.9298641 C18.3881942,48.862699 18.9246408,48.7130485 19.4236893,48.4916311 C19.0505825,49.0498058 18.5787379,49.5400583 18.0348932,49.9323883 L18.0348932,49.9323883 Z" id="twitter-4-icon" fill="#FFFFFF" sketch:type="MSShapeGroup"></path>
            <path d="M12,0 C5.37256311,0 0,5.37256311 0,12 C0,18.6274369 5.37256311,24 12,24 C18.6274369,24 24,18.6274369 24,12 C24,5.37256311 18.6274369,0 12,0 L12,0 Z M8.79838835,17.8014757 L6.16368932,17.8014757 L6.16368932,9.28945631 L8.79838835,9.28945631 L8.79838835,17.8014757 L8.79838835,17.8014757 Z M7.46848544,8.17473786 C6.60803883,8.17473786 5.91046602,7.47151456 5.91046602,6.60407767 C5.91046602,5.73664078 6.60803883,5.03341748 7.46848544,5.03341748 C8.32887379,5.03341748 9.0264466,5.73664078 9.0264466,6.60407767 C9.0264466,7.47151456 8.32887379,8.17473786 7.46848544,8.17473786 L7.46848544,8.17473786 Z M18.672,17.8014757 L16.0500583,17.8014757 L16.0500583,13.3333398 C16.0500583,12.1078835 15.5845631,11.423767 14.615534,11.423767 C13.5609903,11.423767 13.0099806,12.1362524 13.0099806,13.3333398 L13.0099806,17.8014757 L10.4829903,17.8014757 L10.4829903,9.28945631 L13.0099806,9.28945631 L13.0099806,10.4358058 C13.0099806,10.4358058 13.77,9.02976699 15.5749515,9.02976699 C17.3799612,9.02976699 18.6719417,10.1317864 18.6719417,12.4117864 C18.672,14.6917864 18.672,17.8014757 18.672,17.8014757 L18.672,17.8014757 Z" id="linkedin-circle-icon" fill="#FFFFFF" sketch:type="MSShapeGroup"></path>
            <path d="M10.0792058,175.91965 L10.0792058,168.23782 L16.3284874,172.078793 L10.0792058,175.91965 L10.0792058,175.91965 Z M12.7765262,164 C15.3301184,164.249265 17.6294582,165.7171 18.9280214,167.971776 C20.2265845,170.226453 20.3448369,172.956457 19.2834388,175.297908 L17.9297689,174.514453 C18.7186621,172.659348 18.6035165,170.522667 17.582701,168.750365 C16.5620019,166.978063 14.7736524,165.809791 12.7765262,165.567027 L12.7765262,164 L12.7765262,164 Z M18.506934,176.646579 C17.0147398,178.738803 14.5969922,180.001012 11.9998272,180.001012 C9.40266213,180.001012 6.98491456,178.738803 5.49272038,176.646579 L6.84650679,175.863046 C8.05477863,177.475504 9.95827378,178.443835 11.9997883,178.443835 C14.0413029,178.443835 15.9447981,177.475504 17.1530699,175.863046 L18.506934,176.646579 L18.506934,176.646579 Z M4.71617669,175.297946 C3.65477863,172.956496 3.7730699,170.226491 5.07159417,167.971815 C6.37019611,165.717139 8.66953591,164.249304 11.2231281,164 L11.2231281,165.567027 C9.22600193,165.809752 7.43765242,166.978063 6.41691456,168.750365 C5.39613786,170.522667 5.28095339,172.659348 6.06984659,174.514453 L4.71617669,175.297946 L4.71617669,175.297946 Z" id="video-play-4-icon" fill="#112337" sketch:type="MSShapeGroup"></path>
            <path d="M10.0792058,215.91965 L10.0792058,208.23782 L16.3284874,212.078793 L10.0792058,215.91965 L10.0792058,215.91965 Z M12.7765262,204 C15.3301184,204.249265 17.6294582,205.7171 18.9280214,207.971776 C20.2265845,210.226453 20.3448369,212.956457 19.2834388,215.297908 L17.9297689,214.514453 C18.7186621,212.659348 18.6035165,210.522667 17.582701,208.750365 C16.5620019,206.978063 14.7736524,205.809791 12.7765262,205.567027 L12.7765262,204 L12.7765262,204 Z M18.506934,216.646579 C17.0147398,218.738803 14.5969922,220.001012 11.9998272,220.001012 C9.40266213,220.001012 6.98491456,218.738803 5.49272038,216.646579 L6.84650679,215.863046 C8.05477863,217.475504 9.95827378,218.443835 11.9997883,218.443835 C14.0413029,218.443835 15.9447981,217.475504 17.1530699,215.863046 L18.506934,216.646579 L18.506934,216.646579 Z M4.71617669,215.297946 C3.65477863,212.956496 3.7730699,210.226491 5.07159417,207.971815 C6.37019611,205.717139 8.66953591,204.249304 11.2231281,204 L11.2231281,205.567027 C9.22600193,205.809752 7.43765242,206.978063 6.41691456,208.750365 C5.39613786,210.522667 5.28095339,212.659348 6.06984659,214.514453 L4.71617669,215.297946 L4.71617669,215.297946 Z" id="video-play-4-icon-2" fill="#FFFFFF" sketch:type="MSShapeGroup"></path>
        </g>
    </g>
</svg>